<?xml version="1.0" encoding="iso-8859-1"?>
<!-- Uploaded to: SVG Repo, www.svgrepo.com, Generator: SVG Repo Mixer Tools -->
<svg height="800px" width="800px" version="1.1" id="Layer_1" xmlns="http://www.w3.org/2000/svg" xmlns:xlink="http://www.w3.org/1999/xlink" 
	 viewBox="0 0 512.002 512.002" xml:space="preserve">
<path style="fill:#ED412F;" d="M248.282,285.154c0,7.422,6.016,13.439,13.439,13.439H402.22c7.423,0,13.439-6.017,13.439-13.439
	V128.022c0-7.422-6.016-13.439-13.439-13.439H261.721c-7.423,0-13.439,6.017-13.439,13.439V285.154z"/>
<path style="opacity:0.1;fill:#231F20;enable-background:new    ;" d="M261.721,114.583c-7.423,0-13.439,6.017-13.439,13.439
	v141.733h60.246c7.422,0,13.439-6.017,13.439-13.439V114.583H261.721z"/>
<path style="fill:#FF4D30;" d="M136.67,238.398c0,7.422,6.017,13.439,13.439,13.439h140.5c7.423,0,13.439-6.017,13.439-13.439
	V81.265c0-7.423-6.016-13.439-13.439-13.439h-140.5c-7.422,0-13.439,6.016-13.439,13.439V238.398z"/>
<path style="opacity:0.1;fill:#231F20;enable-background:new    ;" d="M162.987,238.398V81.265c0-7.423,6.017-13.439,13.439-13.439
	h-26.318c-7.422,0-13.439,6.016-13.439,13.439v157.133c0,7.422,6.017,13.439,13.439,13.439h26.318
	C169.004,251.837,162.987,245.82,162.987,238.398z"/>
<path style="fill:#CAE9F7;" d="M136.67,501.773c-4.639,0-8.399-3.759-8.399-8.399V30.297c0-4.64,3.761-8.399,8.399-8.399
	s8.399,3.759,8.399,8.399v463.077C145.069,498.013,141.308,501.773,136.67,501.773z"/>
<circle style="fill:#FFD960;" cx="136.673" cy="23.378" r="23.378"/>
<path style="fill:#8E5751;" d="M186.952,420.751c-46.743,0-85.254,35.157-90.594,80.466c-0.144,2.961,0.589,10.785,12.394,10.785
	h121.781c0-23.69,9.031-45.268,23.834-61.489C237.681,432.225,213.658,420.751,186.952,420.751z"/>
<path style="fill:#8C6E51;" d="M397.932,511.957c0.15-0.01,0.29-0.027,0.436-0.038c0.276-0.023,0.545-0.049,0.806-0.083
	c0.185-0.023,0.362-0.053,0.54-0.082c0.188-0.03,0.372-0.064,0.551-0.099c0.226-0.047,0.45-0.095,0.665-0.149
	c0.072-0.019,0.141-0.038,0.212-0.057c6.158-1.679,6.891-6.8,6.802-9.6c-5.055-45.611-43.677-81.098-90.639-81.098
	c-50.394,0-91.249,40.854-91.249,91.249h170.512C397.041,512,397.494,511.983,397.932,511.957z"/>
<g>
	<path style="opacity:0.1;fill:#231F20;enable-background:new    ;" d="M131.49,23.378c0-9.683,5.887-17.992,14.279-21.54
		C142.973,0.654,139.897,0,136.67,0c-12.911,0-23.377,10.468-23.377,23.378c0,12.911,10.467,23.379,23.377,23.379
		c3.228,0,6.303-0.654,9.099-1.838C137.378,41.37,131.49,33.062,131.49,23.378z"/>
	<path style="opacity:0.1;fill:#231F20;enable-background:new    ;" d="M114.557,501.217c4.988-42.334,38.939-75.798,81.504-80.009
		c-2.997-0.297-6.034-0.456-9.109-0.456c-46.743,0-85.254,35.157-90.594,80.466c-0.144,2.961,0.589,10.785,12.394,10.785h18.198
		C115.147,512,114.412,504.176,114.557,501.217z"/>
	<path style="opacity:0.1;fill:#231F20;enable-background:new    ;" d="M326.387,421.205c-2.988-0.296-6.017-0.455-9.082-0.455
		c-50.394,0-91.249,40.854-91.249,91.249h18.198C244.253,464.683,280.272,425.78,326.387,421.205z"/>
</g>
</svg>