<?xml version="1.0" encoding="iso-8859-1"?>
<!-- Uploaded to: SVG Repo, www.svgrepo.com, Generator: SVG Repo Mixer Tools -->
<svg xmlns="http://www.w3.org/2000/svg" xmlns:xlink="http://www.w3.org/1999/xlink" version="1.1" id="Layer_1"  viewBox="0 0 443.837 443.837" xml:space="preserve" width="512" height="512">
<g>
	<path style="fill:#808080;" d="M269.322,161.271l-4.384-6.085c-1.625-2.256-3.471-4.421-5.487-6.437   c-20.692-20.691-54.366-20.691-75.065,0.001c-2.016,2.016-3.862,4.182-5.486,6.436l-4.384,6.085l-12.17-8.769l4.384-6.085   c2.093-2.906,4.466-5.689,7.05-8.274c26.55-26.54,69.74-26.539,96.278,0c2.583,2.583,4.956,5.367,7.051,8.275l4.384,6.085   L269.322,161.271z"/>
	<path style="fill:#B3B3B3;" d="M408.513,308.946c-34.42,25.86-83.52,23.13-114.84-8.2c-14.7-14.7-24.45-39.6-26.56-58.77   l14.81-33.29l32.48-11.5c-22.88,22.87-22.88,59.96,0,82.84c22.87,22.87,59.96,22.87,82.83,0   C390.613,286.636,404.413,308.776,408.513,308.946z"/>
	<path style="fill:#B3B3B3;" d="M129.443,197.186l30.98,10l16.3,34.79c-2.1,19.17-11.85,44.07-26.55,58.77   c-31.33,31.33-80.42,34.06-114.84,8.2c4.09-0.17,17.89-22.31,11.27-28.92c22.88,22.87,59.96,22.87,82.84,0   C152.313,257.146,152.313,220.056,129.443,197.186z"/>
	<path style="fill:#E6E6E6;" d="M203.533,181.516c6.83,6.83,7.67,17.61,1.98,25.43l-23.4,32.1c-1.36,1.86-3.35,2.83-5.39,2.93   l-47.28-44.79c-22.88-22.87-59.96-22.87-82.84,0c-22.87,22.87-22.87,59.96,0,82.84c-6.62-6.62-28.76,7.18-28.92,11.29   c-25.49-33.78-23.46-81.34,6.34-112.95c13.52-14.34,30.62-23.09,48.52-26.29c0.03,0,0.04,0,0.06,0c3.95-0.7,7.69-2.26,10.94-4.62   l36.14-26.34c7.81-5.69,18.6-4.86,25.43,1.98l29.21,29.21L203.533,181.516z"/>
	<path style="fill:#E6E6E6;" d="M419.813,178.366c29.81,31.61,31.83,79.19,6.33,112.97c-0.16-4.12-22.29-17.93-28.91-11.31   c22.88-22.88,22.88-59.97,0-82.84c-22.87-22.87-59.96-22.87-82.83,0l-47.29,44.79c-2.03-0.1-4.03-1.07-5.38-2.93l-23.4-32.1   c-5.7-7.82-4.86-18.6,1.97-25.43l29.22-29.21l29.21-29.21c6.83-6.84,17.61-7.67,25.43-1.98l36.14,26.34   c3.24,2.36,6.98,3.92,10.93,4.62c0.02,0,0.04,0,0.06,0C389.193,155.276,406.293,164.026,419.813,178.366z"/>
	<path style="fill:#808080;" d="M35.333,308.946c-4.57,0.19-9.21-1.46-12.7-4.95c-3.49-3.49-5.14-8.12-4.95-12.68   c0.16-4.11,1.82-8.17,4.95-11.29c6.62-6.62,17.35-6.62,23.97,0c6.62,6.61,6.62,17.35,0,23.97   C43.473,307.126,39.423,308.776,35.333,308.946z"/>
	<path style="fill:#808080;" d="M426.143,291.336c0.19,4.56-1.46,9.18-4.94,12.66c-3.49,3.49-8.13,5.14-12.69,4.95   c-4.1-0.17-8.15-1.82-11.28-4.95c-6.62-6.62-6.62-17.36,0-23.97c6.62-6.62,17.35-6.62,23.97,0   C424.343,283.156,425.983,287.216,426.143,291.336z"/>
	<circle style="fill:#B3B3B3;" cx="266.419" cy="196.387" r="7.5"/>
	<circle style="fill:#B3B3B3;" cx="177.419" cy="196.387" r="7.5"/>
</g>















</svg>